<?xml version="1.0" encoding="UTF-8" standalone="no"?><svg xmlns="http://www.w3.org/2000/svg" xmlns:xlink="http://www.w3.org/1999/xlink" contentScriptType="application/ecmascript" contentStyleType="text/css" height="135px" preserveAspectRatio="none" style="width:1317px;height:135px;" version="1.1" viewBox="0 0 1317 135" width="1317px" zoomAndPan="magnify"><defs/><g><ellipse cx="73.1777" cy="110.742" fill="#F8F8F8" rx="20.6777" ry="13.242" style="stroke: #383838; stroke-width: 0.5;"/><text fill="#000000" font-family="Tahoma, sans-serif" font-size="12" lengthAdjust="spacingAndGlyphs" textLength="25" x="60.6777" y="114.4842">date</text><ellipse cx="1012.2046" cy="51.742" fill="#F8F8F8" rx="53.2046" ry="13.242" style="stroke: #383838; stroke-width: 0.5;"/><text fill="#000000" font-family="Tahoma, sans-serif" font-size="12" lengthAdjust="spacingAndGlyphs" textLength="71" x="976.7046" y="55.4842">deleteExport</text><ellipse cx="167.2132" cy="51.742" fill="#F8F8F8" rx="24.2132" ry="13.242" style="stroke: #383838; stroke-width: 0.5;"/><text fill="#000000" font-family="Tahoma, sans-serif" font-size="12" lengthAdjust="spacingAndGlyphs" textLength="30" x="152.2132" y="55.4842">excel</text><ellipse cx="678.169" cy="51.742" fill="#F8F8F8" rx="49.669" ry="13.242" style="stroke: #383838; stroke-width: 0.5;"/><text fill="#000000" font-family="Tahoma, sans-serif" font-size="12" lengthAdjust="spacingAndGlyphs" textLength="66" x="645.169" y="55.4842">exportState</text><ellipse cx="167.0833" cy="110.742" fill="#F8F8F8" rx="51.0833" ry="13.242" style="stroke: #383838; stroke-width: 0.5;"/><text fill="#000000" font-family="Tahoma, sans-serif" font-size="12" lengthAdjust="spacingAndGlyphs" textLength="68" x="133.0833" y="114.4842">fetchBasics</text><ellipse cx="1040.9264" cy="110.742" fill="#F8F8F8" rx="45.4264" ry="13.242" style="stroke: #383838; stroke-width: 0.5;"/><text fill="#000000" font-family="Tahoma, sans-serif" font-size="12" lengthAdjust="spacingAndGlyphs" textLength="60" x="1010.9264" y="114.4842">fetchDocs</text><ellipse cx="1158.0862" cy="110.7172" fill="#F8F8F8" rx="56.5862" ry="13.7172" style="stroke: #383838; stroke-width: 0.5;"/><text fill="#000000" font-family="Tahoma, sans-serif" font-size="12" lengthAdjust="spacingAndGlyphs" textLength="79" x="1118.5862" y="114.4594">fetchVersions</text><ellipse cx="268.0426" cy="51.7085" fill="#F8F8F8" rx="61.5426" ry="14.7085" style="stroke: #383838; stroke-width: 0.5;"/><text fill="#000000" font-family="Tahoma, sans-serif" font-size="12" font-weight="bold" lengthAdjust="spacingAndGlyphs" textLength="92" x="222.0426" y="55.4507">handlerDelete</text><ellipse cx="67.1505" cy="51.6301" fill="#F8F8F8" rx="61.1505" ry="14.6301" style="stroke: #383838; stroke-width: 0.5;"/><text fill="#000000" font-family="Tahoma, sans-serif" font-size="12" font-weight="bold" lengthAdjust="spacingAndGlyphs" textLength="91" x="21.6505" y="55.3723">handlerExport</text><ellipse cx="1193.9148" cy="51.283" fill="#F8F8F8" rx="54.4148" ry="13.283" style="stroke: #383838; stroke-width: 0.5;"/><text fill="#000000" font-family="Tahoma, sans-serif" font-size="12" font-weight="bold" lengthAdjust="spacingAndGlyphs" textLength="73" x="1157.4148" y="55.0251">handlerList</text><ellipse cx="401.8275" cy="51.3655" fill="#F8F8F8" rx="57.3275" ry="13.8655" style="stroke: #383838; stroke-width: 0.5;"/><text fill="#000000" font-family="Tahoma, sans-serif" font-size="12" font-weight="bold" lengthAdjust="spacingAndGlyphs" textLength="81" x="361.3275" y="55.1077">handlerSync</text><ellipse cx="521.8406" cy="51.742" fill="#F8F8F8" rx="46.8406" ry="13.242" style="stroke: #383838; stroke-width: 0.5;"/><text fill="#000000" font-family="Tahoma, sans-serif" font-size="12" lengthAdjust="spacingAndGlyphs" textLength="62" x="490.8406" y="55.4842">latestState</text><ellipse cx="954.9203" cy="110.742" fill="#F8F8F8" rx="24.9203" ry="13.242" style="stroke: #383838; stroke-width: 0.5;"/><text fill="#000000" font-family="Tahoma, sans-serif" font-size="12" lengthAdjust="spacingAndGlyphs" textLength="31" x="939.4203" y="114.4842">query</text><ellipse cx="598.9434" cy="51.6547" fill="#F8F8F8" rx="14.4434" ry="12.1547" style="stroke: #383838; stroke-width: 0.5;"/><text fill="#000000" font-family="Tahoma, sans-serif" font-size="12" lengthAdjust="spacingAndGlyphs" textLength="14" x="591.9434" y="55.3969">s3</text><ellipse cx="1102.0919" cy="51.742" fill="#F8F8F8" rx="22.0919" ry="13.242" style="stroke: #383838; stroke-width: 0.5;"/><text fill="#000000" font-family="Tahoma, sans-serif" font-size="12" lengthAdjust="spacingAndGlyphs" textLength="27" x="1088.5919" y="55.4842">sync</text><ellipse cx="1284.8848" cy="51.742" fill="#F8F8F8" rx="21.3848" ry="13.242" style="stroke: #383838; stroke-width: 0.5;"/><text fill="#000000" font-family="Tahoma, sans-serif" font-size="12" font-weight="bold" lengthAdjust="spacingAndGlyphs" textLength="26" x="1271.8848" y="55.4842">test</text><ellipse cx="894.7548" cy="51.742" fill="#F8F8F8" rx="48.2548" ry="13.242" style="stroke: #383838; stroke-width: 0.5;"/><text fill="#000000" font-family="Tahoma, sans-serif" font-size="12" lengthAdjust="spacingAndGlyphs" textLength="64" x="862.7548" y="55.4842">unexported</text><ellipse cx="766.0993" cy="110.3199" fill="#F8F8F8" rx="59.5993" ry="14.3199" style="stroke: #383838; stroke-width: 0.5;"/><text fill="#000000" font-family="Tahoma, sans-serif" font-size="12" lengthAdjust="spacingAndGlyphs" textLength="87" x="722.5993" y="114.062">unexported-diff</text><ellipse cx="522.0772" cy="110.742" fill="#F8F8F8" rx="30.5772" ry="13.242" style="stroke: #383838; stroke-width: 0.5;"/><text fill="#000000" font-family="Tahoma, sans-serif" font-size="12" lengthAdjust="spacingAndGlyphs" textLength="39" x="502.5772" y="114.4842">update</text><ellipse cx="787.2193" cy="51.742" fill="#F8F8F8" rx="44.7193" ry="13.242" style="stroke: #383838; stroke-width: 0.5;"/><text fill="#000000" font-family="Tahoma, sans-serif" font-size="12" font-weight="bold" lengthAdjust="spacingAndGlyphs" textLength="59" x="757.7193" y="55.4842">webhook</text><!--MD5=[1f9d14bda107935324466f8d0787a740]
link deleteExport to query--><path d="M1000.19,64.3104 C991.402,73.0985 979.345,85.1554 969.895,94.6051 " fill="none" id="deleteExport-&gt;query" style="stroke: #000000; stroke-width: 0.5;"/><polygon fill="#000000" points="966.022,98.4782,975.2142,94.9423,969.5574,94.9425,969.5572,89.2857,966.022,98.4782" style="stroke: #000000; stroke-width: 0.5;"/><!--MD5=[77da2226057e230bafa6e97018653bef]
link excel to fetchBasics--><path d="M167,64.5882 C167,72.6743 167,83.4342 167,92.395 " fill="none" id="excel-&gt;fetchBasics" style="stroke: #000000; stroke-width: 0.5;"/><polygon fill="#000000" points="167,97.4292,171,88.4292,167,92.4292,163,88.4292,167,97.4292" style="stroke: #000000; stroke-width: 0.5;"/><!--MD5=[7108b6b9e600af7325b60e4ffe9998c8]
link exportState to date--><path d="M645.033,61.336 C637.206,63.1476 628.848,64.85 621,66 C395.023,99.1102 331.215,47.6593 108,96 C103.3256,97.0123 98.4528,98.5548 93.8801,100.2399 " fill="none" id="exportState-&gt;date" style="stroke: #000000; stroke-width: 0.5;"/><polygon fill="#000000" points="89.0597,102.1061,98.8968,102.5869,93.7224,100.3009,96.0084,95.1265,89.0597,102.1061" style="stroke: #000000; stroke-width: 0.5;"/><!--MD5=[a7b126b0778730e1307e09f45a17bc6e]
link exportState to query--><path d="M712.617,60.9172 C719.993,62.6494 727.745,64.4243 735,66 C803.594,80.899 884.687,96.3875 926.653,104.2457 " fill="none" id="exportState-&gt;query" style="stroke: #000000; stroke-width: 0.5;"/><polygon fill="#000000" points="931.819,105.2114,923.707,99.626,926.9041,104.2928,922.2373,107.4899,931.819,105.2114" style="stroke: #000000; stroke-width: 0.5;"/><!--MD5=[7c3ea06df5a5b9fe9e513af75734363a]
link exportState to unexported-diff--><path d="M695.386,63.7614 C708.641,72.347 727.057,84.2758 741.759,93.7986 " fill="none" id="exportState-&gt;unexported-diff" style="stroke: #000000; stroke-width: 0.5;"/><polygon fill="#000000" points="746.193,96.6703,740.8142,88.4199,741.9966,93.9518,736.4647,95.1342,746.193,96.6703" style="stroke: #000000; stroke-width: 0.5;"/><!--MD5=[fa986fe5ffcb5ab4d336e980eb8cc416]
link exportState to update--><path d="M650.827,62.4286 C622.275,72.8612 577.628,89.1743 549.103,99.5971 " fill="none" id="exportState-&gt;update" style="stroke: #000000; stroke-width: 0.5;"/><polygon fill="#000000" points="544.32,101.3447,554.1461,102.0135,549.0164,99.6289,551.4009,94.4992,544.32,101.3447" style="stroke: #000000; stroke-width: 0.5;"/><!--MD5=[337c02f7dc38d8ea12437e66b54455b5]
link <b>handlerDelete</b> to deleteExport--><path d="M294.904,38.3257 C309.253,32.0265 327.427,25.1778 344.5,22 C409.932,9.821 878.315,8.561 943.5,22 C958.054,25.0007 973.326,31.2397 985.747,37.2105 " fill="none" id="&lt;b&gt;handlerDelete&lt;/b&gt;-&gt;deleteExport" style="stroke: #000000; stroke-width: 1.0;"/><polygon fill="#000000" points="990.534,39.5659,984.2241,32.0038,986.0475,37.3587,980.6926,39.1822,990.534,39.5659" style="stroke: #000000; stroke-width: 1.0;"/><!--MD5=[1c46db47653196d297ea5836f731b2a0]
link <b>handlerDelete</b> to s3--><path d="M294.904,38.3257 C309.253,32.0265 327.427,25.1778 344.5,22 C393.437,12.891 522.354,3.335 568.5,22 C576.157,25.0972 582.958,31.1405 588.183,36.9549 " fill="none" id="&lt;b&gt;handlerDelete&lt;/b&gt;-&gt;s3" style="stroke: #000000; stroke-width: 1.0;"/><polygon fill="#000000" points="591.54,40.9047,588.7592,31.4566,588.3019,37.0949,582.6635,36.6375,591.54,40.9047" style="stroke: #000000; stroke-width: 1.0;"/><!--MD5=[fc0d3b4c7022c983972f78d30e8f7fdf]
link <b>handlerDelete</b> to unexported--><path d="M294.904,38.3257 C309.253,32.0265 327.427,25.1778 344.5,22 C397.697,12.098 778.663,10.326 831.5,22 C845.122,25.0098 859.293,31.2497 870.782,37.2188 " fill="none" id="&lt;b&gt;handlerDelete&lt;/b&gt;-&gt;unexported" style="stroke: #000000; stroke-width: 1.0;"/><polygon fill="#000000" points="875.208,39.5734,869.1413,31.8148,870.7939,37.2249,865.3838,38.8774,875.208,39.5734" style="stroke: #000000; stroke-width: 1.0;"/><!--MD5=[a5d3aaa5da685a40c6e5e86ee60fe082]
link <b>handlerDelete</b> to update--><path d="M310.514,62.0405 C361.372,73.4536 445.313,92.2907 490.638,102.462 " fill="none" id="&lt;b&gt;handlerDelete&lt;/b&gt;-&gt;update" style="stroke: #000000; stroke-width: 1.0;"/><polygon fill="#000000" points="495.702,103.5984,487.7956,97.7256,490.8232,102.5041,486.0448,105.5317,495.702,103.5984" style="stroke: #000000; stroke-width: 1.0;"/><!--MD5=[629b96f22d9b2179300caeda6882c369]
link <b>handlerExport</b> to date--><path d="M68.4219,66.0082 C69.2484,73.8599 70.2983,83.8339 71.1841,92.2492 " fill="none" id="&lt;b&gt;handlerExport&lt;/b&gt;-&gt;date" style="stroke: #000000; stroke-width: 1.0;"/><polygon fill="#000000" points="71.711,97.2546,74.7466,87.8852,71.1874,92.2821,66.7906,88.7229,71.711,97.2546" style="stroke: #000000; stroke-width: 1.0;"/><!--MD5=[596dcb24286cfda530ef51055936f3ab]
link <b>handlerExport</b> to excel--><path d="M128.328,51.5 C131.349,51.5 134.371,51.5 137.392,51.5 " fill="none" id="&lt;b&gt;handlerExport&lt;/b&gt;-&gt;excel" style="stroke: #000000; stroke-width: 1.0;"/><polygon fill="#000000" points="142.83,51.5,133.83,47.5,137.83,51.5,133.83,55.5,142.83,51.5" style="stroke: #000000; stroke-width: 1.0;"/><!--MD5=[d90e84a3a682e2a157005c99c6232eda]
link <b>handlerExport</b> to exportState--><path d="M93.5344,38.3268 C107.69,32.0279 125.628,25.1791 142.5,22 C193.928,12.309 562.366,10.861 613.5,22 C627.308,25.0078 641.699,31.2476 653.374,37.217 " fill="none" id="&lt;b&gt;handlerExport&lt;/b&gt;-&gt;exportState" style="stroke: #000000; stroke-width: 1.0;"/><polygon fill="#000000" points="657.873,39.5717,651.754,31.8543,653.4431,37.2531,648.0443,38.9421,657.873,39.5717" style="stroke: #000000; stroke-width: 1.0;"/><!--MD5=[853800105ace5dd5a0922328cd385702]
link <b>handlerExport</b> to latestState--><path d="M93.5344,38.3268 C107.69,32.0279 125.628,25.1791 142.5,22 C211.726,8.956 390.761,6.593 459.5,22 C472.818,24.985 486.64,31.1418 497.889,37.0621 " fill="none" id="&lt;b&gt;handlerExport&lt;/b&gt;-&gt;latestState" style="stroke: #000000; stroke-width: 1.0;"/><polygon fill="#000000" points="502.544,39.575,496.5233,31.7807,498.1438,37.2005,492.724,38.821,502.544,39.575" style="stroke: #000000; stroke-width: 1.0;"/><!--MD5=[4e0be1d584867050ae78e4369f4473bd]
link <b>handlerExport</b> to s3--><path d="M93.5344,38.3268 C107.69,32.0279 125.628,25.1791 142.5,22 C189.015,13.235 524.62,4.251 568.5,22 C576.157,25.0972 582.958,31.1405 588.183,36.9549 " fill="none" id="&lt;b&gt;handlerExport&lt;/b&gt;-&gt;s3" style="stroke: #000000; stroke-width: 1.0;"/><polygon fill="#000000" points="591.54,40.9047,588.7592,31.4566,588.3019,37.0949,582.6635,36.6375,591.54,40.9047" style="stroke: #000000; stroke-width: 1.0;"/><!--MD5=[73b0e37df90f5d901c2718206bf400d7]
link <b>handlerExport</b> to unexported--><path d="M93.5344,38.3268 C107.69,32.0279 125.628,25.1791 142.5,22 C217.732,7.824 756.747,5.484 831.5,22 C845.122,25.0098 859.293,31.2497 870.782,37.2188 " fill="none" id="&lt;b&gt;handlerExport&lt;/b&gt;-&gt;unexported" style="stroke: #000000; stroke-width: 1.0;"/><polygon fill="#000000" points="875.208,39.5734,869.1413,31.8148,870.7939,37.2249,865.3838,38.8774,875.208,39.5734" style="stroke: #000000; stroke-width: 1.0;"/><!--MD5=[a7851a4beae79941d224ad60b0b55074]
link <b>handlerSync</b> to sync--><path d="M426.429,38.7938 C440.154,32.3714 457.83,25.2617 474.5,22 C538.945,9.391 1003.59,0.109 1065.5,22 C1073.9,24.969 1081.78,30.7813 1088.05,36.4673 " fill="none" id="&lt;b&gt;handlerSync&lt;/b&gt;-&gt;sync" style="stroke: #000000; stroke-width: 1.0;"/><polygon fill="#000000" points="1091.74,39.9647,1087.9642,30.8684,1088.1128,36.5233,1082.4579,36.6719,1091.74,39.9647" style="stroke: #000000; stroke-width: 1.0;"/><!--MD5=[4d6a46e97a58bb0d933c2ebd8eb64679]
link <b>handlerSync</b> to unexported--><path d="M426.429,38.7938 C440.154,32.3714 457.83,25.2617 474.5,22 C552.357,6.767 754.035,4.885 831.5,22 C845.122,25.0098 859.293,31.2497 870.782,37.2188 " fill="none" id="&lt;b&gt;handlerSync&lt;/b&gt;-&gt;unexported" style="stroke: #000000; stroke-width: 1.0;"/><polygon fill="#000000" points="875.208,39.5734,869.1413,31.8148,870.7939,37.2249,865.3838,38.8774,875.208,39.5734" style="stroke: #000000; stroke-width: 1.0;"/><!--MD5=[7f81beae23fad5e16e9f610fb795849c]
link <b>handlerSync</b> to update--><path d="M426.573,64.1723 C447.483,74.1043 477.335,88.2842 498.061,98.129 " fill="none" id="&lt;b&gt;handlerSync&lt;/b&gt;-&gt;update" style="stroke: #000000; stroke-width: 1.0;"/><polygon fill="#000000" points="502.599,100.2846,496.1863,92.8095,498.0828,98.139,492.7533,100.0355,502.599,100.2846" style="stroke: #000000; stroke-width: 1.0;"/><!--MD5=[34ee2f1940f45108b1c982bf77913b1e]
link latestState to update--><path d="M522,64.5882 C522,72.6743 522,83.4342 522,92.395 " fill="none" id="latestState-&gt;update" style="stroke: #000000; stroke-width: 0.5;"/><polygon fill="#000000" points="522,97.4292,526,88.4292,522,92.4292,518,88.4292,522,97.4292" style="stroke: #000000; stroke-width: 0.5;"/><!--MD5=[d255673d4971ea0b86ab325786d85f62]
link sync to fetchDocs--><path d="M1090.81,62.9547 C1081.38,71.7709 1067.75,84.5009 1057.14,94.4203 " fill="none" id="sync-&gt;fetchDocs" style="stroke: #000000; stroke-width: 0.5;"/><polygon fill="#000000" points="1053.38,97.9352,1062.6867,94.7125,1057.0331,94.5212,1057.2244,88.8676,1053.38,97.9352" style="stroke: #000000; stroke-width: 0.5;"/><!--MD5=[f6c2bb92051e7b945dfe5d8527404473]
link sync to fetchVersions--><path d="M1112.53,63.2213 C1120.92,71.7622 1132.8,83.85 1142.31,93.53 " fill="none" id="sync-&gt;fetchVersions" style="stroke: #000000; stroke-width: 0.5;"/><polygon fill="#000000" points="1145.96,97.2436,1142.4936,88.0249,1142.4511,93.6816,1136.7944,93.6392,1145.96,97.2436" style="stroke: #000000; stroke-width: 0.5;"/><!--MD5=[7b2dba34188631a8e6cdce8400b99e7e]
link sync to query--><path d="M1085.86,60.3472 C1081.71,62.2758 1077.22,64.2793 1073,66 C1035.91,81.1379 1025.44,81.7447 988,96 C984.963,97.1564 981.784,98.4062 978.648,99.6626 " fill="none" id="sync-&gt;query" style="stroke: #000000; stroke-width: 0.5;"/><polygon fill="#000000" points="973.784,101.6297,983.6272,101.9643,978.4194,99.7554,980.6283,94.5477,973.784,101.6297" style="stroke: #000000; stroke-width: 0.5;"/><!--MD5=[099544e295444047056e8767e9adeba6]
link unexported to unexported-diff--><path d="M871.339,62.9547 C850.696,72.0763 820.571,85.3874 797.819,95.4405 " fill="none" id="unexported-&gt;unexported-diff" style="stroke: #000000; stroke-width: 0.5;"/><polygon fill="#000000" points="793.082,97.5336,802.9308,97.5538,797.6552,95.5123,799.6967,90.2366,793.082,97.5336" style="stroke: #000000; stroke-width: 0.5;"/><!--MD5=[8dcb9d5be304e0ad4fde90d73ca2bd07]
link <b>webhook</b> to fetchDocs--><path d="M818.002,60.8485 C824.897,62.6214 832.183,64.4301 839,66 C904.828,81.1598 922.137,80.9915 988,96 C993.245,97.1952 998.765,98.5227 1004.18,99.8652 " fill="none" id="&lt;b&gt;webhook&lt;/b&gt;-&gt;fetchDocs" style="stroke: #000000; stroke-width: 1.0;"/><polygon fill="#000000" points="1009.11,101.0991,1001.3491,95.0354,1004.2593,99.8862,999.4085,102.7964,1009.11,101.0991" style="stroke: #000000; stroke-width: 1.0;"/><!--MD5=[5427629af363116f15bf541cb8bc2fc7]
link <b>webhook</b> to unexported--><path d="M831.719,51.5 C834.706,51.5 837.693,51.5 840.679,51.5 " fill="none" id="&lt;b&gt;webhook&lt;/b&gt;-&gt;unexported" style="stroke: #000000; stroke-width: 1.0;"/><polygon fill="#000000" points="846.056,51.5,837.056,47.5,841.056,51.5,837.056,55.5,846.056,51.5" style="stroke: #000000; stroke-width: 1.0;"/><!--MD5=[19eda19ecb30eac144d9df8819818252]
link <b>webhook</b> to update--><path d="M755.994,60.8343 C749.1,62.608 741.815,64.4207 735,66 C671.226,80.7797 596.092,95.5007 554.267,103.4579 " fill="none" id="&lt;b&gt;webhook&lt;/b&gt;-&gt;update" style="stroke: #000000; stroke-width: 1.0;"/><polygon fill="#000000" points="549.334,104.3943,558.9223,106.6449,554.2462,103.4614,557.4297,98.7854,549.334,104.3943" style="stroke: #000000; stroke-width: 1.0;"/><script type="text/plantuml"><![CDATA[MD5=[90b98cef10682bdb7fbe026d7927f9cd]
@startuml

scale max 1920 width
top to bottom direction

skinparam nodesep 15
skinparam ranksep 30
skinparam monochrome true
skinparam shadowing false
skinparam defaultFontName Tahoma
skinparam defaultFontSize 12
skinparam roundCorner 6
skinparam dpi 150
skinparam arrowColor black
skinparam arrowThickness 0.5
skinparam packageTitleAlignment left

skinparam usecase {
  borderThickness 0.5
}

skinparam rectangle {
  borderThickness 0.5
}

skinparam component {
  borderThickness 1
}


(date)
(deleteExport)
(excel)
(exportState)
(fetchBasics)
(fetchDocs)
(fetchVersions)
(<b>handlerDelete</b>)
(<b>handlerExport</b>)
(<b>handlerList</b>)
(<b>handlerSync</b>)
(latestState)
(query)
(s3)
(sync)
(<b>test</b>)
(unexported)
(unexported-diff)
(update)
(<b>webhook</b>)


(deleteExport) --> (query)
(excel) --> (fetchBasics)
(exportState) --> (date)
(exportState) --> (query)
(exportState) --> (unexported-diff)
(exportState) --> (update)
(<b>handlerDelete</b>) -[thickness=1]> (deleteExport)
(<b>handlerDelete</b>) -[thickness=1]> (s3)
(<b>handlerDelete</b>) -[thickness=1]> (unexported)
(<b>handlerDelete</b>) -[thickness=1]> (update)
(<b>handlerExport</b>) -[thickness=1]> (date)
(<b>handlerExport</b>) -[thickness=1]> (excel)
(<b>handlerExport</b>) -[thickness=1]> (exportState)
(<b>handlerExport</b>) -[thickness=1]> (latestState)
(<b>handlerExport</b>) -[thickness=1]> (s3)
(<b>handlerExport</b>) -[thickness=1]> (unexported)
(<b>handlerSync</b>) -[thickness=1]> (sync)
(<b>handlerSync</b>) -[thickness=1]> (unexported)
(<b>handlerSync</b>) -[thickness=1]> (update)
(latestState) --> (update)
(sync) --> (fetchDocs)
(sync) --> (fetchVersions)
(sync) --> (query)
(unexported) --> (unexported-diff)
(<b>webhook</b>) -[thickness=1]> (fetchDocs)
(<b>webhook</b>) -[thickness=1]> (unexported)
(<b>webhook</b>) -[thickness=1]> (update)

@enduml


' View and edit on https://arkit.pro
]]></script></g></svg>