<?xml version="1.0" encoding="UTF-8" standalone="no"?><svg xmlns="http://www.w3.org/2000/svg" xmlns:xlink="http://www.w3.org/1999/xlink" contentScriptType="application/ecmascript" contentStyleType="text/css" height="529px" preserveAspectRatio="none" style="width:430px;height:529px;" version="1.1" viewBox="0 0 430 529" width="430px" zoomAndPan="magnify"><defs/><g><ellipse cx="359.6777" cy="152.35" fill="#F8F8F8" rx="20.6777" ry="13.242" style="stroke: #383838; stroke-width: 0.5;"/><text fill="#000000" font-family="Tahoma, sans-serif" font-size="12" lengthAdjust="spacingAndGlyphs" textLength="25" x="347.1777" y="156.0922">date</text><ellipse cx="207.7046" cy="490.3498" fill="#F8F8F8" rx="53.2046" ry="13.242" style="stroke: #383838; stroke-width: 0.5;"/><text fill="#000000" font-family="Tahoma, sans-serif" font-size="12" lengthAdjust="spacingAndGlyphs" textLength="71" x="172.2046" y="494.092">deleteExport</text><ellipse cx="207.7132" cy="66.35" fill="#F8F8F8" rx="24.2132" ry="13.242" style="stroke: #383838; stroke-width: 0.5;"/><text fill="#000000" font-family="Tahoma, sans-serif" font-size="12" lengthAdjust="spacingAndGlyphs" textLength="30" x="192.7132" y="70.0922">excel</text><ellipse cx="207.669" cy="280.35" fill="#F8F8F8" rx="49.669" ry="13.242" style="stroke: #383838; stroke-width: 0.5;"/><text fill="#000000" font-family="Tahoma, sans-serif" font-size="12" lengthAdjust="spacingAndGlyphs" textLength="66" x="174.669" y="284.0922">exportState</text><ellipse cx="359.5833" cy="66.35" fill="#F8F8F8" rx="51.0833" ry="13.242" style="stroke: #383838; stroke-width: 0.5;"/><text fill="#000000" font-family="Tahoma, sans-serif" font-size="12" lengthAdjust="spacingAndGlyphs" textLength="68" x="325.5833" y="70.0922">fetchBasics</text><ellipse cx="359.4264" cy="385.35" fill="#F8F8F8" rx="45.4264" ry="13.242" style="stroke: #383838; stroke-width: 0.5;"/><text fill="#000000" font-family="Tahoma, sans-serif" font-size="12" lengthAdjust="spacingAndGlyphs" textLength="60" x="329.4264" y="389.0922">fetchDocs</text><ellipse cx="359.5862" cy="447.325" fill="#F8F8F8" rx="56.5862" ry="13.7172" style="stroke: #383838; stroke-width: 0.5;"/><text fill="#000000" font-family="Tahoma, sans-serif" font-size="12" lengthAdjust="spacingAndGlyphs" textLength="79" x="320.0862" y="451.0672">fetchVersions</text><ellipse cx="207.5426" cy="110.3165" fill="#F8F8F8" rx="61.5426" ry="14.7085" style="stroke: #383838; stroke-width: 0.5;"/><text fill="#000000" font-family="Tahoma, sans-serif" font-size="12" font-weight="bold" lengthAdjust="spacingAndGlyphs" textLength="92" x="161.5426" y="114.0587">handlerDelete</text><ellipse cx="207.6505" cy="22.2381" fill="#F8F8F8" rx="61.1505" ry="14.6301" style="stroke: #383838; stroke-width: 0.5;"/><text fill="#000000" font-family="Tahoma, sans-serif" font-size="12" font-weight="bold" lengthAdjust="spacingAndGlyphs" textLength="91" x="162.1505" y="25.9803">handlerExport</text><ellipse cx="60.4148" cy="426.8908" fill="#F8F8F8" rx="54.4148" ry="13.283" style="stroke: #383838; stroke-width: 0.5;"/><text fill="#000000" font-family="Tahoma, sans-serif" font-size="12" font-weight="bold" lengthAdjust="spacingAndGlyphs" textLength="73" x="23.9148" y="430.6329">handlerList</text><ellipse cx="207.3275" cy="194.9735" fill="#F8F8F8" rx="57.3275" ry="13.8655" style="stroke: #383838; stroke-width: 0.5;"/><text fill="#000000" font-family="Tahoma, sans-serif" font-size="12" font-weight="bold" lengthAdjust="spacingAndGlyphs" textLength="81" x="166.8275" y="198.7157">handlerSync</text><ellipse cx="207.3406" cy="238.35" fill="#F8F8F8" rx="46.8406" ry="13.242" style="stroke: #383838; stroke-width: 0.5;"/><text fill="#000000" font-family="Tahoma, sans-serif" font-size="12" lengthAdjust="spacingAndGlyphs" textLength="62" x="176.3406" y="242.0922">latestState</text><ellipse cx="359.4203" cy="490.3498" fill="#F8F8F8" rx="24.9203" ry="13.242" style="stroke: #383838; stroke-width: 0.5;"/><text fill="#000000" font-family="Tahoma, sans-serif" font-size="12" lengthAdjust="spacingAndGlyphs" textLength="31" x="343.9203" y="494.092">query</text><ellipse cx="207.4056" cy="406.35" fill="#F8F8F8" rx="33.4056" ry="13.242" style="stroke: #383838; stroke-width: 0.5;"/><text fill="#000000" font-family="Tahoma, sans-serif" font-size="12" lengthAdjust="spacingAndGlyphs" textLength="43" x="185.9056" y="410.0922">request</text><ellipse cx="207.4434" cy="153.2627" fill="#F8F8F8" rx="14.4434" ry="12.1547" style="stroke: #383838; stroke-width: 0.5;"/><text fill="#000000" font-family="Tahoma, sans-serif" font-size="12" lengthAdjust="spacingAndGlyphs" textLength="14" x="200.4434" y="157.0049">s3</text><ellipse cx="60.5061" cy="490.3498" fill="#F8F8F8" rx="23.5061" ry="13.242" style="stroke: #383838; stroke-width: 0.5;"/><text fill="#000000" font-family="Tahoma, sans-serif" font-size="12" lengthAdjust="spacingAndGlyphs" textLength="29" x="46.0061" y="494.092">stats</text><ellipse cx="207.5919" cy="448.3498" fill="#F8F8F8" rx="22.0919" ry="13.242" style="stroke: #383838; stroke-width: 0.5;"/><text fill="#000000" font-family="Tahoma, sans-serif" font-size="12" lengthAdjust="spacingAndGlyphs" textLength="27" x="194.0919" y="452.092">sync</text><ellipse cx="60.3848" cy="384.35" fill="#F8F8F8" rx="21.3848" ry="13.242" style="stroke: #383838; stroke-width: 0.5;"/><text fill="#000000" font-family="Tahoma, sans-serif" font-size="12" font-weight="bold" lengthAdjust="spacingAndGlyphs" textLength="26" x="47.3848" y="388.0922">test</text><ellipse cx="207.2548" cy="364.35" fill="#F8F8F8" rx="48.2548" ry="13.242" style="stroke: #383838; stroke-width: 0.5;"/><text fill="#000000" font-family="Tahoma, sans-serif" font-size="12" lengthAdjust="spacingAndGlyphs" textLength="64" x="175.2548" y="368.0922">unexported</text><ellipse cx="359.5993" cy="301.9279" fill="#F8F8F8" rx="59.5993" ry="14.3199" style="stroke: #383838; stroke-width: 0.5;"/><text fill="#000000" font-family="Tahoma, sans-serif" font-size="12" lengthAdjust="spacingAndGlyphs" textLength="87" x="316.0993" y="305.67">unexported-diff</text><ellipse cx="359.5772" cy="238.35" fill="#F8F8F8" rx="30.5772" ry="13.242" style="stroke: #383838; stroke-width: 0.5;"/><text fill="#000000" font-family="Tahoma, sans-serif" font-size="12" lengthAdjust="spacingAndGlyphs" textLength="39" x="340.0772" y="242.0922">update</text><ellipse cx="207.7193" cy="322.35" fill="#F8F8F8" rx="44.7193" ry="13.242" style="stroke: #383838; stroke-width: 0.5;"/><text fill="#000000" font-family="Tahoma, sans-serif" font-size="12" font-weight="bold" lengthAdjust="spacingAndGlyphs" textLength="59" x="178.2193" y="326.0922">webhook</text><!--MD5=[1f9d14bda107935324466f8d0787a740]
link deleteExport to query--><path d="M260.542,490.1078 C283.436,490.1078 309.488,490.1078 328.968,490.1078 " fill="none" id="deleteExport-&gt;query" style="stroke: #000000; stroke-width: 0.5;"/><polygon fill="#000000" points="334.28,490.1078,325.28,486.1078,329.28,490.1078,325.28,494.1078,334.28,490.1078" style="stroke: #000000; stroke-width: 0.5;"/><!--MD5=[77da2226057e230bafa6e97018653bef]
link excel to fetchBasics--><path d="M231.609,66.108 C250.636,66.108 278.403,66.108 303.115,66.108 " fill="none" id="excel-&gt;fetchBasics" style="stroke: #000000; stroke-width: 0.5;"/><polygon fill="#000000" points="308.337,66.108,299.337,62.108,303.337,66.108,299.337,70.108,308.337,66.108" style="stroke: #000000; stroke-width: 0.5;"/><!--MD5=[7108b6b9e600af7325b60e4ffe9998c8]
link exportState to date--><path d="M244.811,271.455 C253.242,268.409 261.837,264.381 269,259.108 C287.685,245.355 285.334,235.085 300,217.108 C314.438,199.411 332.109,180.067 344.227,167.122 " fill="none" id="exportState-&gt;date" style="stroke: #000000; stroke-width: 0.5;"/><polygon fill="#000000" points="347.8,163.32,338.722,167.1398,344.3762,166.9638,344.5521,172.6179,347.8,163.32" style="stroke: #000000; stroke-width: 0.5;"/><!--MD5=[a7b126b0778730e1307e09f45a17bc6e]
link exportState to query--><path d="M248.629,287.394 C256.323,290.478 263.64,294.866 269,301.108 C318.468,358.709 250.837,411.247 300,469.1078 C307.574,478.0217 319.223,483.1519 330.137,486.1045 " fill="none" id="exportState-&gt;query" style="stroke: #000000; stroke-width: 0.5;"/><polygon fill="#000000" points="335.083,487.3136,327.2917,481.289,330.2263,486.1251,325.3902,489.0597,335.083,487.3136" style="stroke: #000000; stroke-width: 0.5;"/><!--MD5=[7c3ea06df5a5b9fe9e513af75734363a]
link exportState to unexported-diff--><path d="M251.083,286.353 C267.174,288.713 285.731,291.435 302.845,293.945 " fill="none" id="exportState-&gt;unexported-diff" style="stroke: #000000; stroke-width: 0.5;"/><polygon fill="#000000" points="308.106,294.717,299.7821,289.4527,303.159,293.9911,298.6206,297.368,308.106,294.717" style="stroke: #000000; stroke-width: 0.5;"/><!--MD5=[fa986fe5ffcb5ab4d336e980eb8cc416]
link exportState to update--><path d="M242.163,270.682 C268.076,263.427 303.563,253.49 328.509,246.505 " fill="none" id="exportState-&gt;update" style="stroke: #000000; stroke-width: 0.5;"/><polygon fill="#000000" points="333.351,245.15,323.6056,243.7259,328.5363,246.4987,325.7635,251.4294,333.351,245.15" style="stroke: #000000; stroke-width: 0.5;"/><!--MD5=[337c02f7dc38d8ea12437e66b54455b5]
link <b>handlerDelete</b> to deleteExport--><path d="M158.86,119.122 C147.503,123.715 136.873,130.647 130.5,141.108 C112.002,171.472 112.002,430.7433 130.5,461.1078 C136.429,470.8405 146.141,477.3235 156.703,481.6369 " fill="none" id="&lt;b&gt;handlerDelete&lt;/b&gt;-&gt;deleteExport" style="stroke: #000000; stroke-width: 1.0;"/><polygon fill="#000000" points="161.604,483.47,154.5753,476.5709,156.9208,481.7186,151.7731,484.064,161.604,483.47" style="stroke: #000000; stroke-width: 1.0;"/><!--MD5=[d9c6fe0cd8a0ca1f25af9b8e085b0ce7]
link <b>handlerDelete</b> to request--><path d="M158.86,119.122 C147.503,123.715 136.873,130.647 130.5,141.108 C116.857,163.502 116.857,354.714 130.5,377.108 C138.78,390.699 154.435,397.952 169.479,401.811 " fill="none" id="&lt;b&gt;handlerDelete&lt;/b&gt;-&gt;request" style="stroke: #000000; stroke-width: 1.0;"/><polygon fill="#000000" points="174.546,402.994,166.6917,397.0518,169.677,401.8568,164.8721,404.8421,174.546,402.994" style="stroke: #000000; stroke-width: 1.0;"/><!--MD5=[1c46db47653196d297ea5836f731b2a0]
link <b>handlerDelete</b> to s3--><path d="M207.5,125.078 C207.5,128.564 207.5,132.05 207.5,135.536 " fill="none" id="&lt;b&gt;handlerDelete&lt;/b&gt;-&gt;s3" style="stroke: #000000; stroke-width: 1.0;"/><polygon fill="#000000" points="207.5,141.014,211.5,132.014,207.5,136.014,203.5,132.014,207.5,141.014" style="stroke: #000000; stroke-width: 1.0;"/><!--MD5=[fc0d3b4c7022c983972f78d30e8f7fdf]
link <b>handlerDelete</b> to unexported--><path d="M158.86,119.122 C147.503,123.715 136.873,130.647 130.5,141.108 C119.285,159.516 119.285,316.699 130.5,335.108 C136.873,345.569 147.616,352.275 159.086,356.569 " fill="none" id="&lt;b&gt;handlerDelete&lt;/b&gt;-&gt;unexported" style="stroke: #000000; stroke-width: 1.0;"/><polygon fill="#000000" points="164.036,358.265,156.8194,351.5627,159.3062,356.6436,154.2252,359.1304,164.036,358.265" style="stroke: #000000; stroke-width: 1.0;"/><!--MD5=[a5d3aaa5da685a40c6e5e86ee60fe082]
link <b>handlerDelete</b> to update--><path d="M247.258,121.211 C254.868,124.367 262.498,128.293 269,133.108 C287.076,146.493 285.578,155.848 300,173.108 C314.292,190.212 331.431,209.076 343.452,222.056 " fill="none" id="&lt;b&gt;handlerDelete&lt;/b&gt;-&gt;update" style="stroke: #000000; stroke-width: 1.0;"/><polygon fill="#000000" points="347.009,225.886,343.8176,216.5685,343.6073,222.2215,337.9544,222.0112,347.009,225.886" style="stroke: #000000; stroke-width: 1.0;"/><!--MD5=[629b96f22d9b2179300caeda6882c369]
link <b>handlerExport</b> to date--><path d="M247.346,33.094 C254.95,36.258 262.555,40.217 269,45.108 C287.482,59.132 285.334,69.131 300,87.108 C314.438,104.805 332.109,124.149 344.227,137.093 " fill="none" id="&lt;b&gt;handlerExport&lt;/b&gt;-&gt;date" style="stroke: #000000; stroke-width: 1.0;"/><polygon fill="#000000" points="347.8,140.896,344.5541,131.5974,344.3769,137.2515,338.7228,137.0743,347.8,140.896" style="stroke: #000000; stroke-width: 1.0;"/><!--MD5=[596dcb24286cfda530ef51055936f3ab]
link <b>handlerExport</b> to excel--><path d="M207.5,36.61 C207.5,40.376 207.5,44.143 207.5,47.909 " fill="none" id="&lt;b&gt;handlerExport&lt;/b&gt;-&gt;excel" style="stroke: #000000; stroke-width: 1.0;"/><polygon fill="#000000" points="207.5,53.045,211.5,44.045,207.5,48.045,203.5,44.045,207.5,53.045" style="stroke: #000000; stroke-width: 1.0;"/><!--MD5=[d90e84a3a682e2a157005c99c6232eda]
link <b>handlerExport</b> to exportState--><path d="M158.86,31.122 C147.503,35.715 136.873,42.647 130.5,53.108 C119.054,71.896 119.054,232.32 130.5,251.108 C136.743,261.355 147.179,268 158.385,272.303 " fill="none" id="&lt;b&gt;handlerExport&lt;/b&gt;-&gt;exportState" style="stroke: #000000; stroke-width: 1.0;"/><polygon fill="#000000" points="163.224,274.008,156.0628,267.2466,158.5077,272.3478,153.4064,274.7927,163.224,274.008" style="stroke: #000000; stroke-width: 1.0;"/><!--MD5=[853800105ace5dd5a0922328cd385702]
link <b>handlerExport</b> to latestState--><path d="M158.86,31.122 C147.503,35.715 136.873,42.647 130.5,53.108 C112.464,82.713 112.464,179.502 130.5,209.108 C137.003,219.782 148.056,226.547 159.789,230.829 " fill="none" id="&lt;b&gt;handlerExport&lt;/b&gt;-&gt;latestState" style="stroke: #000000; stroke-width: 1.0;"/><polygon fill="#000000" points="164.848,232.516,157.5754,225.8746,160.1047,230.9344,155.0449,233.4638,164.848,232.516" style="stroke: #000000; stroke-width: 1.0;"/><!--MD5=[0da7f18477c7ffaa73b0550c59e04077]
link <b>handlerExport</b> to request--><path d="M158.86,31.122 C147.503,35.715 136.873,42.647 130.5,53.108 C111.77,83.852 111.77,346.364 130.5,377.108 C138.78,390.699 154.435,397.952 169.479,401.811 " fill="none" id="&lt;b&gt;handlerExport&lt;/b&gt;-&gt;request" style="stroke: #000000; stroke-width: 1.0;"/><polygon fill="#000000" points="174.546,402.994,166.6917,397.0518,169.677,401.8568,164.8721,404.8421,174.546,402.994" style="stroke: #000000; stroke-width: 1.0;"/><!--MD5=[4e0be1d584867050ae78e4369f4473bd]
link <b>handlerExport</b> to s3--><path d="M158.86,31.122 C147.503,35.715 136.873,42.647 130.5,53.108 C114.083,80.056 114.083,97.159 130.5,124.108 C142.32,143.51 169.174,149.998 187.819,152.129 " fill="none" id="&lt;b&gt;handlerExport&lt;/b&gt;-&gt;s3" style="stroke: #000000; stroke-width: 1.0;"/><polygon fill="#000000" points="192.841,152.621,184.2748,147.7609,187.8649,152.1325,183.4933,155.7226,192.841,152.621" style="stroke: #000000; stroke-width: 1.0;"/><!--MD5=[73b0e37df90f5d901c2718206bf400d7]
link <b>handlerExport</b> to unexported--><path d="M158.86,31.122 C147.503,35.715 136.873,42.647 130.5,53.108 C114.198,79.867 114.198,308.349 130.5,335.108 C136.873,345.569 147.616,352.275 159.086,356.569 " fill="none" id="&lt;b&gt;handlerExport&lt;/b&gt;-&gt;unexported" style="stroke: #000000; stroke-width: 1.0;"/><polygon fill="#000000" points="164.036,358.265,156.8194,351.5627,159.3062,356.6436,154.2252,359.1304,164.036,358.265" style="stroke: #000000; stroke-width: 1.0;"/><!--MD5=[0b5b5760bd3c1c62dd0b32101e08fe9c]
link <b>handlerList</b> to request--><path d="M108.177,420.3477 C128.458,417.4105 151.84,414.024 170.713,411.291 " fill="none" id="&lt;b&gt;handlerList&lt;/b&gt;-&gt;request" style="stroke: #000000; stroke-width: 1.0;"/><polygon fill="#000000" points="175.91,410.538,166.4301,407.8675,170.9615,411.2537,167.5752,415.7851,175.91,410.538" style="stroke: #000000; stroke-width: 1.0;"/><!--MD5=[7f6585f37a08fc37733ed1d323950d65]
link <b>handlerList</b> to stats--><path d="M60.5,440.7007 C60.5,451.047 60.5,461.3933 60.5,471.7397 " fill="none" id="&lt;b&gt;handlerList&lt;/b&gt;-&gt;stats" style="stroke: #000000; stroke-width: 1.0;"/><polygon fill="#000000" points="60.5,476.8188,64.5,467.8188,60.5,471.8188,56.5,467.8188,60.5,476.8188" style="stroke: #000000; stroke-width: 1.0;"/><!--MD5=[03b1737f36ca99538508862c968a8cf6]
link <b>handlerSync</b> to request--><path d="M159.625,203.132 C147.967,207.569 136.994,214.448 130.5,225.108 C112.927,253.954 112.927,348.262 130.5,377.108 C138.78,390.699 154.435,397.952 169.479,401.811 " fill="none" id="&lt;b&gt;handlerSync&lt;/b&gt;-&gt;request" style="stroke: #000000; stroke-width: 1.0;"/><polygon fill="#000000" points="174.546,402.994,166.6917,397.0518,169.677,401.8568,164.8721,404.8421,174.546,402.994" style="stroke: #000000; stroke-width: 1.0;"/><!--MD5=[a7851a4beae79941d224ad60b0b55074]
link <b>handlerSync</b> to sync--><path d="M159.625,203.132 C147.967,207.569 136.994,214.448 130.5,225.108 C119.285,243.516 119.285,400.699 130.5,419.1078 C140.737,435.9122 162.252,443.0288 179.943,446.0178 " fill="none" id="&lt;b&gt;handlerSync&lt;/b&gt;-&gt;sync" style="stroke: #000000; stroke-width: 1.0;"/><polygon fill="#000000" points="185.294,446.819,176.9866,441.5287,180.3493,446.0776,175.8004,449.4402,185.294,446.819" style="stroke: #000000; stroke-width: 1.0;"/><!--MD5=[4d6a46e97a58bb0d933c2ebd8eb64679]
link <b>handlerSync</b> to unexported--><path d="M159.625,203.132 C147.967,207.569 136.994,214.448 130.5,225.108 C117.782,245.983 117.782,314.232 130.5,335.108 C136.873,345.569 147.616,352.275 159.086,356.569 " fill="none" id="&lt;b&gt;handlerSync&lt;/b&gt;-&gt;unexported" style="stroke: #000000; stroke-width: 1.0;"/><polygon fill="#000000" points="164.036,358.265,156.8194,351.5627,159.3062,356.6436,154.2252,359.1304,164.036,358.265" style="stroke: #000000; stroke-width: 1.0;"/><!--MD5=[7f81beae23fad5e16e9f610fb795849c]
link <b>handlerSync</b> to update--><path d="M245.579,205.737 C271.173,213.074 304.763,222.703 328.637,229.547 " fill="none" id="&lt;b&gt;handlerSync&lt;/b&gt;-&gt;update" style="stroke: #000000; stroke-width: 1.0;"/><polygon fill="#000000" points="333.578,230.964,326.0294,224.638,328.7717,229.5857,323.8241,232.328,333.578,230.964" style="stroke: #000000; stroke-width: 1.0;"/><!--MD5=[34ee2f1940f45108b1c982bf77913b1e]
link latestState to update--><path d="M254.729,238.108 C276.949,238.108 303.139,238.108 323.65,238.108 " fill="none" id="latestState-&gt;update" style="stroke: #000000; stroke-width: 0.5;"/><polygon fill="#000000" points="328.736,238.108,319.736,234.108,323.736,238.108,319.736,242.108,328.736,238.108" style="stroke: #000000; stroke-width: 0.5;"/><!--MD5=[4fb9ac9fbc88a48f3fee74256884d121]
link stats to deleteExport--><path d="M84.1562,490.1078 C101.5581,490.1078 126.386,490.1078 149.133,490.1078 " fill="none" id="stats-&gt;deleteExport" style="stroke: #000000; stroke-width: 0.5;"/><polygon fill="#000000" points="154.254,490.1078,145.254,486.1078,149.254,490.1078,145.254,494.1078,154.254,490.1078" style="stroke: #000000; stroke-width: 0.5;"/><!--MD5=[bbba96f9c5a90534d9df6d4db3e52f7d]
link stats to query--><path d="M81.3886,496.5106 C98.3509,501.6168 123.493,508.3531 146,511.1078 C200.262,517.7494 214.696,517.3934 269,511.1078 C290.738,508.5918 314.864,502.747 332.584,497.8608 " fill="none" id="stats-&gt;query" style="stroke: #000000; stroke-width: 0.5;"/><polygon fill="#000000" points="337.405,496.5117,327.6601,495.0845,332.5899,497.8589,329.8156,502.7887,337.405,496.5117" style="stroke: #000000; stroke-width: 0.5;"/><!--MD5=[d255673d4971ea0b86ab325786d85f62]
link sync to fetchDocs--><path d="M227.222,442.1713 C239.271,438.2133 255.2,432.7228 269,427.1078 C290.217,418.4749 313.635,407.429 331.194,398.832 " fill="none" id="sync-&gt;fetchDocs" style="stroke: #000000; stroke-width: 0.5;"/><polygon fill="#000000" points="335.984,396.476,326.1426,396.8591,331.4974,398.6829,329.6736,404.0377,335.984,396.476" style="stroke: #000000; stroke-width: 0.5;"/><!--MD5=[f6c2bb92051e7b945dfe5d8527404473]
link sync to fetchVersions--><path d="M229.673,447.9667 C247.391,447.8486 273.579,447.674 297.725,447.513 " fill="none" id="sync-&gt;fetchVersions" style="stroke: #000000; stroke-width: 0.5;"/><polygon fill="#000000" points="302.843,447.4789,293.8158,443.5407,297.8431,447.5132,293.8706,451.5405,302.843,447.4789" style="stroke: #000000; stroke-width: 0.5;"/><!--MD5=[7b2dba34188631a8e6cdce8400b99e7e]
link sync to query--><path d="M227.803,453.5126 C254.282,460.9267 301.98,474.2821 331.848,482.6453 " fill="none" id="sync-&gt;query" style="stroke: #000000; stroke-width: 0.5;"/><polygon fill="#000000" points="336.845,484.0445,329.2574,477.7653,332.0303,482.6959,327.0997,485.4688,336.845,484.0445" style="stroke: #000000; stroke-width: 0.5;"/><!--MD5=[099544e295444047056e8767e9adeba6]
link unexported to unexported-diff--><path d="M239.178,354.095 C248.797,350.786 259.405,346.961 269,343.108 C288.571,335.249 310.07,325.44 327.091,317.387 " fill="none" id="unexported-&gt;unexported-diff" style="stroke: #000000; stroke-width: 0.5;"/><polygon fill="#000000" points="331.767,315.166,321.9213,315.4157,327.2509,317.3119,325.3547,322.6415,331.767,315.166" style="stroke: #000000; stroke-width: 0.5;"/><!--MD5=[8dcb9d5be304e0ad4fde90d73ca2bd07]
link <b>webhook</b> to fetchDocs--><path d="M237.964,331.644 C247.905,335.044 259.011,339.043 269,343.108 C290.217,351.741 313.635,362.787 331.194,371.384 " fill="none" id="&lt;b&gt;webhook&lt;/b&gt;-&gt;fetchDocs" style="stroke: #000000; stroke-width: 1.0;"/><polygon fill="#000000" points="335.984,373.74,329.6746,366.1775,331.4977,371.5326,326.1426,373.3557,335.984,373.74" style="stroke: #000000; stroke-width: 1.0;"/><!--MD5=[c2047a76545ff5588306209ee5fbceab]
link <b>webhook</b> to request--><path d="M166.473,327.22 C152.386,331.256 138.229,338.421 130.5,351.108 C124.488,360.976 124.488,367.239 130.5,377.108 C138.78,390.699 154.435,397.952 169.479,401.811 " fill="none" id="&lt;b&gt;webhook&lt;/b&gt;-&gt;request" style="stroke: #000000; stroke-width: 1.0;"/><polygon fill="#000000" points="174.546,402.994,166.6917,397.0518,169.677,401.8568,164.8721,404.8421,174.546,402.994" style="stroke: #000000; stroke-width: 1.0;"/><!--MD5=[5427629af363116f15bf541cb8bc2fc7]
link <b>webhook</b> to unexported--><path d="M207.5,335.192 C207.5,338.646 207.5,342.1 207.5,345.555 " fill="none" id="&lt;b&gt;webhook&lt;/b&gt;-&gt;unexported" style="stroke: #000000; stroke-width: 1.0;"/><polygon fill="#000000" points="207.5,350.983,211.5,341.983,207.5,345.983,203.5,341.983,207.5,350.983" style="stroke: #000000; stroke-width: 1.0;"/><!--MD5=[19eda19ecb30eac144d9df8819818252]
link <b>webhook</b> to update--><path d="M239.968,313.04 C249.524,309.799 259.898,305.774 269,301.108 C272.716,299.203 313.548,270.195 338.758,252.214 " fill="none" id="&lt;b&gt;webhook&lt;/b&gt;-&gt;update" style="stroke: #000000; stroke-width: 1.0;"/><polygon fill="#000000" points="342.966,249.211,333.3161,251.1805,338.8953,252.1144,337.9614,257.6936,342.966,249.211" style="stroke: #000000; stroke-width: 1.0;"/><script type="text/plantuml"><![CDATA[MD5=[ab4d243fbb136e134c016af46b82d3a2]
@startuml

scale max 1920 width
left to right direction

skinparam nodesep 16
skinparam ranksep 31
skinparam monochrome true
skinparam shadowing false
skinparam defaultFontName Tahoma
skinparam defaultFontSize 12
skinparam roundCorner 6
skinparam dpi 150
skinparam arrowColor black
skinparam arrowThickness 0.5
skinparam packageTitleAlignment left

skinparam usecase {
  borderThickness 0.5
}

skinparam rectangle {
  borderThickness 0.5
}

skinparam component {
  borderThickness 1
}


(date)
(deleteExport)
(excel)
(exportState)
(fetchBasics)
(fetchDocs)
(fetchVersions)
(<b>handlerDelete</b>)
(<b>handlerExport</b>)
(<b>handlerList</b>)
(<b>handlerSync</b>)
(latestState)
(query)
(request)
(s3)
(stats)
(sync)
(<b>test</b>)
(unexported)
(unexported-diff)
(update)
(<b>webhook</b>)


(deleteExport) --> (query)
(excel) --> (fetchBasics)
(exportState) --> (date)
(exportState) --> (query)
(exportState) --> (unexported-diff)
(exportState) --> (update)
(<b>handlerDelete</b>) -[thickness=1]> (deleteExport)
(<b>handlerDelete</b>) -[thickness=1]> (request)
(<b>handlerDelete</b>) -[thickness=1]> (s3)
(<b>handlerDelete</b>) -[thickness=1]> (unexported)
(<b>handlerDelete</b>) -[thickness=1]> (update)
(<b>handlerExport</b>) -[thickness=1]> (date)
(<b>handlerExport</b>) -[thickness=1]> (excel)
(<b>handlerExport</b>) -[thickness=1]> (exportState)
(<b>handlerExport</b>) -[thickness=1]> (latestState)
(<b>handlerExport</b>) -[thickness=1]> (request)
(<b>handlerExport</b>) -[thickness=1]> (s3)
(<b>handlerExport</b>) -[thickness=1]> (unexported)
(<b>handlerList</b>) -[thickness=1]> (request)
(<b>handlerList</b>) -[thickness=1]> (stats)
(<b>handlerSync</b>) -[thickness=1]> (request)
(<b>handlerSync</b>) -[thickness=1]> (sync)
(<b>handlerSync</b>) -[thickness=1]> (unexported)
(<b>handlerSync</b>) -[thickness=1]> (update)
(latestState) --> (update)
(stats) --> (deleteExport)
(stats) --> (query)
(sync) --> (fetchDocs)
(sync) --> (fetchVersions)
(sync) --> (query)
(unexported) --> (unexported-diff)
(<b>webhook</b>) -[thickness=1]> (fetchDocs)
(<b>webhook</b>) -[thickness=1]> (request)
(<b>webhook</b>) -[thickness=1]> (unexported)
(<b>webhook</b>) -[thickness=1]> (update)

@enduml


' View and edit on https://arkit.pro
]]></script></g></svg>